<?xml version="1.0" encoding="iso-8859-1"?>
<!-- Uploaded to: SVG Repo, www.svgrepo.com, Generator: SVG Repo Mixer Tools -->
<svg fill="#000000" height="800px" width="800px" version="1.1" id="Layer_1" xmlns="http://www.w3.org/2000/svg" xmlns:xlink="http://www.w3.org/1999/xlink" 
	 viewBox="0 0 512 512" xml:space="preserve">
<g>
	<g>
		<path d="M256,0c-75.155,0-133.565,61.869-133.565,133.565v33.391c0,42.831,57.419,75.13,133.565,75.13
			s133.565-32.299,133.565-75.13v-33.391C389.565,56.111,325.806,0,256,0z M356.174,166.957c0,17.429-38.108,41.739-100.174,41.739
			s-100.174-24.31-100.174-41.739v-24.644c24.478,15.374,60.268,24.644,100.174,24.644s75.696-9.269,100.174-24.644V166.957z"/>
	</g>
</g>
<g>
	<g>
		<path d="M456.348,411.826h-16.696V395.13c0-9.223-7.473-16.696-16.696-16.696H289.391c-7.245,0-13.349,4.638-15.661,11.087
			c-5.575-2.068-11.537-3.261-17.731-3.261s-12.156,1.193-17.731,3.261c-2.312-6.449-8.416-11.087-15.661-11.087H89.044
			c-9.223,0-16.696,7.473-16.696,16.696v16.696H55.652c-9.223,0-16.696,7.473-16.696,16.696c0,9.223,7.473,16.696,16.696,16.696
			h18.379C81.786,483.276,115.511,512,155.826,512c44.858,0,81.457-35.585,83.301-79.997c2.402-7.277,9.136-12.351,16.873-12.351
			s14.47,5.074,16.873,12.351C274.717,476.415,311.316,512,356.174,512c40.316,0,74.04-28.724,81.795-66.783h18.379
			c9.223,0,16.696-7.473,16.696-16.696C473.043,419.299,465.57,411.826,456.348,411.826z"/>
	</g>
</g>
<g>
	<g>
		<path d="M405.248,59.173c11.229,22.435,17.709,47.644,17.709,74.393v33.391c0,62.88-70.217,108.522-166.957,108.522
			S89.044,229.837,89.044,166.957v-33.391c0-26.749,6.479-51.958,17.708-74.393C43.908,83.729,5.565,123.206,5.565,166.957
			c0,74.897,110.005,133.565,250.435,133.565s250.435-58.669,250.435-133.565C506.435,123.206,468.092,83.729,405.248,59.173z"/>
	</g>
</g>
</svg>